# xmcd
#
# Track frame offsets:
#	150
#	20444
#	42717
#	61437
#	81522
#	102254
#	116887
#	138657
#	154750
#	180436
#	199470
#	218209
#	235545
#	263204
#
# Disc length: 3748 seconds
#
# Revision: 0
# Processed by: cddbd v1.5.2PL0 Copyright (c) Steve Scherf et al.
# Submitted via: EasyCDDAExtractor 11.0.3.1
#
DISCID=d00ea20e
DTITLE=Barry White - Edição Limitada Gold
DYEAR=1900
DGENRE=Soul
TTITLE0=Can't get enough of your love baby
TTITLE1=Beware
TTITLE2=Love's theme
TTITLE3=Rio de Janeiro
TTITLE4=You're the first, the last the everything
TTITLE5=Honey please can't you see
TTITLE6=Never gonna give you up
TTITLE7=Let the music play
TTITLE8=Lady sweet lady
TTITLE9=I'm gonna love you just a little
TTITLE10=Gotta be where you are
TTITLE11=Relax to the Max
TTITLE12=Let me in and let's begin with love
TTITLE13=I'm so glad that i'm a woman
EXTD=
EXTT0=
EXTT1=
EXTT2=
EXTT3=
EXTT4=
EXTT5=
EXTT6=
EXTT7=
EXTT8=
EXTT9=
EXTT10=
EXTT11=
EXTT12=
EXTT13=
PLAYORDER=
